<svg xmlns="http://www.w3.org/2000/svg" width="16" viewBox="0 0 640 480">
 <g>
  <title>Layer 1</title>
  <path d="m416.846985,109.244995c17.785004,0 32.207001,-14.471008 32.207001,-32.255005c0,-17.785004 -14.421997,-32.207001 -32.207001,-32.207001c-17.832977,0 -32.254974,14.421997 -32.254974,32.207001c0,17.783997 14.421997,32.255005 32.254974,32.255005" fill-rule="nonzero" fill="#00aa00" id="path8248"/>
  <path d="m305.852997,133.169006l-50.136993,57.932983c-2.972015,3.654022 -7.455017,5.895996 -12.522003,5.895996c-8.964996,0 -16.225006,-7.259979 -16.225006,-16.176971c0,-4.872009 2.095001,-9.209015 5.457001,-12.181l54.084015,-62.269012c2.971985,-3.557007 7.454987,-5.847015 12.522003,-5.847015l78.250977,-0.048981c5.75,0 10.914001,2.338989 14.714996,5.992981l49.893005,49.894012l41.367004,-41.269989c2.924011,-2.485016 6.676025,-3.947021 10.768005,-3.947021c9.257996,0 16.713013,7.503998 16.713013,16.762024c0,4.043976 -1.36499,7.697998 -3.752014,10.621979l-49.845001,50.234009c-15.152985,15.105011 -27.333984,2.290009 -27.333984,2.290009l-30.598999,-30.744995l-47.798004,55.301971l43.802979,43.803009c0,0 9.257019,8.576019 3.946014,25.628998l-24.557007,109.483032c-1.949005,9.501953 -10.32901,16.664001 -20.365997,16.664001c-11.548004,0 -20.854004,-9.355042 -20.854004,-20.854004c0,-1.851013 0.195007,-3.605042 0.632996,-5.262024l20.221008,-89.799011l-49.796997,-48.382996l-42.828003,47.75c0,0 -6.919006,8.527039 -25.287994,7.893005l-86.875,0.145996c-9.695999,0.147034 -18.514999,-6.47998 -20.659012,-16.322021c-2.582993,-11.20697 4.336014,-22.218964 15.591003,-24.702972c1.755005,-0.389984 3.509003,-0.536011 5.214005,-0.488007l74.694,0.195007l110.458008,-128.046997l-28.894012,-0.145996z" fill-rule="nonzero" fill="#00aa00" id="path8256"/>
 </g>
</svg>