
<svg height="16" viewBox="1 -25 511.9995 511" width="16" xmlns="http://www.w3.org/2000/svg">
    <path d="m291.160156 462.433594h-226.105468c-8.28125 0-15-6.71875-15-15 0-8.285156 6.71875-15 15-15h226.105468c8.285156 0 15 6.714844 15 15 0 8.28125-6.714844 15-15 15zm0 0" fill="#878477" />
    <path d="m379.1875 462.445312h-28.027344c-8.285156 0-15-6.714843-15-15 0-8.285156 6.714844-15 15-15h28.027344c8.285156 0 15 6.714844 15 15 0 8.285157-6.714844 15-15 15zm0 0" fill="#878477" />
    <path d="m65.058594 462.445312c-3.980469 0-7.796875-1.582031-10.609375-4.394531l-32.566407-32.566406c-14.113281-14.109375-21.882812-32.871094-21.882812-52.828125s7.769531-38.71875 21.882812-52.832031l96.585938-96.585938c2.8125-2.8125 6.628906-4.394531 10.605469-4.394531 3.976562 0 7.792969 1.582031 10.605469 4.394531l149.582031 149.582031c5.855469 5.855469 5.855469 15.351563 0 21.210938l-64.007813 64.007812c-2.8125 2.8125-6.628906 4.390626-10.605468 4.394532zm0 0" fill="#edeade" />
    <path d="m65.058594 462.445312 149.589844-.011718c3.980468-.003906 7.792968-1.582032 10.605468-4.394532l64.007813-64.007812c5.855469-5.859375 5.855469-15.355469 0-21.210938l-74.789063-74.792968-160.023437 160.023437c2.8125 2.8125 6.628906 4.394531 10.609375 4.394531zm0 0" fill="#c4c0ad" />
    <path d="m285.035156 404.808594c-3.839844 0-7.675781-1.464844-10.605468-4.394532l-162.34375-162.34375c-5.855469-5.859374-5.855469-15.355468 0-21.210937l211.964843-211.964844c2.8125-2.8125 6.628907-4.394531 10.605469-4.394531 3.980469 0 7.792969 1.582031 10.609375 4.394531l162.339844 162.34375c5.859375 5.855469 5.859375 15.351563 0 21.210938l-211.960938 211.964843c-2.929687 2.929688-6.769531 4.394532-10.609375 4.394532zm0 0" fill="#4dc979" />
    <path d="m426.433594 86.066406-233.175782 233.175782 81.171876 81.171874c2.929687 2.925782 6.769531 4.394532 10.605468 4.394532 3.839844 0 7.679688-1.464844 10.605469-4.394532l211.964844-211.964843c5.859375-5.859375 5.859375-15.355469 0-21.210938zm0 0" fill="#1e9e60" />
</svg>